<svg xmlns="http://www.w3.org/2000/svg" xmlns:xlink="http://www.w3.org/1999/xlink" id="Layer_1" x="0" y="0" version="1.1" viewBox="0 0 150 150" xml:space="preserve" style="enable-background:new 0 0 150 150"><style type="text/css">.st0{fill:#dceefd}.st1{fill:#002031}.st3{fill:#fe6f43}.st16{fill:#eda7c5}.st19{fill:#f4c9db}.st19,.st20,.st21{fill-rule:evenodd;clip-rule:evenodd}.st20{fill:#1540eb}.st21{fill:#59acf5}.st22{fill:#1d1d1b}</style><g><g><circle cx="75" cy="79.1" r="55.8" class="st0"/></g><g><g><path d="M109.8,122.7c-9.5,7.6-21.6,12.2-34.8,12.2c-0.6,0-1.1,0-1.7,0l-7.7-17c0,0-6.1-3.1-9.8-9.3 c-0.7-1.1-1.3-2.3-1.7-3.5c-0.7-1.9,4.2-2.5,11.1-2.5c2.3,0,4.8,0.1,7.3,0.2c4.1,0.2,8.4,0.5,12.3,0.9c2.8,0.2,5.4,0.5,7.5,0.7 c1,0.1,1.9,0.2,2.6,0.3c1.8,0.2,2.9,0.3,2.9,0.3l0.4,0.6h6.9c-0.2,3.2,0.2,6.3,1.1,9.4C107,117.7,108.2,120.3,109.8,122.7z" class="st19"/></g><g><polygon points="41.4 59.6 53.7 59.5 50.8 66.8" class="st19"/></g><g><path d="M73.4,61L64,72.4L31.2,43.1c-2.2-1.9-2.4-5.3-0.6-7.5l0,0c1.9-2.2,5.1-2.6,7.5-0.9L73.4,61z" class="st19"/></g><g><polygon points="49.1 42.9 47.5 57.6 51.3 61.1 51.3 44.6" class="st16"/></g><g><g><g><path d="M99.8,12.8h-35c-4,0-7.4,3-7.8,7l-8.4,83.7c-0.3,2.7,1.8,5,4.5,5h35c4,0,7.4-3,7.8-7l8.4-83.7 C104.6,15.1,102.5,12.8,99.8,12.8z" class="st20"/></g><g><path d="M96.4,12.8h-35c-4,0-7.4,3-7.8,7l-8.4,83.7c-0.3,2.7,1.8,5,4.5,5h42l9.2-90.8 C101.2,15.1,99.1,12.8,96.4,12.8z" class="st21"/></g><g><g><polygon points="90.2 92.2 49 92.2 55.9 20.7 97 20.7" class="st3"/></g><g><path d="M86.5,65.9l-4.7,4.3c-0.4,0.4-1,0.3-1.4-0.1L59.9,47.5c-0.4-0.4-0.3-1,0.1-1.4l4.7-4.3 c0.4-0.4,1-0.3,1.4,0.1l20.5,22.7C86.9,64.9,86.9,65.6,86.5,65.9z" class="st22"/></g><g><path d="M58.1,65.9l3.7,4.1c0.4,0.4,1,0.4,1.4,0.1l25-22.8c0.4-0.4,0.4-1,0.1-1.4l-3.7-4.1 c-0.4-0.4-1-0.4-1.4-0.1l-25,22.8C57.8,64.9,57.7,65.5,58.1,65.9z" class="st22"/></g></g></g><g><ellipse cx="69" cy="100.6" class="st0" rx="4.4" ry="4" transform="matrix(0.7252 -0.6885 0.6885 0.7252 -50.2777 75.1669)"/></g></g><g><path d="M85.2,111c0,0-1.3-8.6,0.2-15.7c1.8-8.7,8.4-12.1,8.4-12.1l2.3-18c0.6-3.9,3.2-6.8,7.2-6.6l0.7,0 c1.1,0.1,2,0.9,2,2c0,0,1.5,23.8,1.2,28.8c-0.3,5-1.2,28.4-1.2,28.4L69.8,116L85.2,111z" class="st19"/></g><g><path d="M54.3,75.2L54.3,75.2c-1.7,2.4-4.9,2.9-7.3,1.3l-8.9-5.9c-2.8-1.9-3.5-5.7-1.5-8.4l0,0 c2-2.9,6.1-3.4,8.8-1.1l8.1,7C55.6,69.9,55.9,73,54.3,75.2z" class="st19"/></g><g><circle cx="47.1" cy="83.6" r="5.9" class="st19"/></g><g><circle cx="47.1" cy="95.3" r="5.5" class="st19"/></g></g><g><path d="M106.4,70.5c-2.4,0-2.8-2.7-2.9-2.7l-0.1-6.2l2.1-1.9l0.3,0.4l-2,1.8l0.1,6c0,0.1,0.4,2.3,2.4,2.3 c0,0,0.1,0,0.1,0l0,0.5C106.5,70.5,106.5,70.5,106.4,70.5z" class="st1"/></g><g><path d="M86.1,113.4c-0.1,0-0.2-0.1-0.2-0.2c-2.9-9.5-1.1-16.6-1.1-16.7c0-0.1,0.2-0.2,0.3-0.2c0.1,0,0.2,0.2,0.2,0.3 c0,0.1-1.8,7.1,1.1,16.4C86.4,113.2,86.3,113.3,86.1,113.4C86.1,113.4,86.1,113.4,86.1,113.4z" class="st1"/></g></g></svg>