<svg xmlns="http://www.w3.org/2000/svg" xmlns:xlink="http://www.w3.org/1999/xlink" viewBox="0 0 871 1821"><defs><filter id="b" width="112.3%" height="481.6%" x="-6.1%" y="-182.5%" filterUnits="objectBoundingBox"><feOffset dy="2" in="SourceAlpha" result="shadowOffsetOuter1"/><feGaussianBlur in="shadowOffsetOuter1" result="shadowBlurOuter1" stdDeviation="15"/><feColorMatrix in="shadowBlurOuter1" values="0 0 0 0 0 0 0 0 0 0 0 0 0 0 0 0 0 0 0.12 0"/></filter><filter id="d" width="105.2%" height="297%" x="-2.6%" y="-88.1%" filterUnits="objectBoundingBox"><feOffset dy="2" in="SourceAlpha" result="shadowOffsetOuter1"/><feGaussianBlur in="shadowOffsetOuter1" result="shadowBlurOuter1" stdDeviation="6"/><feColorMatrix in="shadowBlurOuter1" values="0 0 0 0 0 0 0 0 0 0 0 0 0 0 0 0 0 0 0.08 0"/></filter><filter id="f" width="103.8%" height="369.6%" x="-1.9%" y="-114.1%" filterUnits="objectBoundingBox"><feOffset dy="2" in="SourceAlpha" result="shadowOffsetOuter1"/><feGaussianBlur in="shadowOffsetOuter1" result="shadowBlurOuter1" stdDeviation="4"/><feColorMatrix in="shadowBlurOuter1" values="0 0 0 0 0 0 0 0 0 0 0 0 0 0 0 0 0 0 0.24 0"/></filter><filter id="j" width="102%" height="101%" x="-1%" y="-.5%" filterUnits="objectBoundingBox"><feMorphology in="SourceAlpha" radius="7" result="shadowSpreadInner1"/><feGaussianBlur in="shadowSpreadInner1" result="shadowBlurInner1" stdDeviation="5"/><feOffset in="shadowBlurInner1" result="shadowOffsetInner1"/><feComposite in="shadowOffsetInner1" in2="SourceAlpha" k2="-1" k3="1" operator="arithmetic" result="shadowInnerInner1"/><feColorMatrix in="shadowInnerInner1" result="shadowMatrixInner1" values="0 0 0 0 0 0 0 0 0 0 0 0 0 0 0 0 0 0 0.25 0"/><feMorphology in="SourceAlpha" radius="1" result="shadowSpreadInner2"/><feGaussianBlur in="shadowSpreadInner2" result="shadowBlurInner2" stdDeviation="2.5"/><feOffset in="shadowBlurInner2" result="shadowOffsetInner2"/><feComposite in="shadowOffsetInner2" in2="SourceAlpha" k2="-1" k3="1" operator="arithmetic" result="shadowInnerInner2"/><feColorMatrix in="shadowInnerInner2" result="shadowMatrixInner2" values="0 0 0 0 0 0 0 0 0 0 0 0 0 0 0 0 0 0 0.25 0"/><feGaussianBlur in="SourceAlpha" result="shadowBlurInner3" stdDeviation="1"/><feOffset in="shadowBlurInner3" result="shadowOffsetInner3"/><feComposite in="shadowOffsetInner3" in2="SourceAlpha" k2="-1" k3="1" operator="arithmetic" result="shadowInnerInner3"/><feColorMatrix in="shadowInnerInner3" result="shadowMatrixInner3" values="0 0 0 0 0 0 0 0 0 0 0 0 0 0 0 0 0 0 0.05 0"/><feMerge><feMergeNode in="shadowMatrixInner1"/><feMergeNode in="shadowMatrixInner2"/><feMergeNode in="shadowMatrixInner3"/></feMerge></filter><filter id="k" width="100.7%" height="100.3%" x="-.4%" y="-.2%" filterUnits="objectBoundingBox"><feMorphology in="SourceAlpha" operator="dilate" radius="1" result="shadowSpreadOuter1"/><feOffset in="shadowSpreadOuter1" result="shadowOffsetOuter1"/><feColorMatrix in="shadowOffsetOuter1" values="0 0 0 0 1 0 0 0 0 1 0 0 0 0 1 0 0 0 0.45 0"/></filter><filter id="m" width="101.2%" height="100.6%" x="-.6%" y="-.3%" filterUnits="objectBoundingBox"><feMorphology in="SourceAlpha" radius="5" result="shadowSpreadInner1"/><feGaussianBlur in="shadowSpreadInner1" result="shadowBlurInner1" stdDeviation=".5"/><feOffset in="shadowBlurInner1" result="shadowOffsetInner1"/><feComposite in="shadowOffsetInner1" in2="SourceAlpha" k2="-1" k3="1" operator="arithmetic" result="shadowInnerInner1"/><feColorMatrix in="shadowInnerInner1" result="shadowMatrixInner1" values="0 0 0 0 0.91372549 0 0 0 0 0.917647059 0 0 0 0 0.925490196 0 0 0 1 0"/><feMorphology in="SourceAlpha" radius="1" result="shadowSpreadInner2"/><feGaussianBlur in="shadowSpreadInner2" result="shadowBlurInner2" stdDeviation=".5"/><feOffset in="shadowBlurInner2" result="shadowOffsetInner2"/><feComposite in="shadowOffsetInner2" in2="SourceAlpha" k2="-1" k3="1" operator="arithmetic" result="shadowInnerInner2"/><feColorMatrix in="shadowInnerInner2" result="shadowMatrixInner2" values="0 0 0 0 1 0 0 0 0 1 0 0 0 0 1 0 0 0 0.5 0"/><feMerge><feMergeNode in="shadowMatrixInner1"/><feMergeNode in="shadowMatrixInner2"/></feMerge></filter><filter id="o" width="107.6%" height="100.3%" x="-3.8%" y="-.2%" filterUnits="objectBoundingBox"><feGaussianBlur in="SourceGraphic" stdDeviation="1"/></filter><filter id="p" width="107.6%" height="100.3%" x="-3.8%" y="-.2%" filterUnits="objectBoundingBox"><feGaussianBlur in="SourceGraphic" stdDeviation="1"/></filter><filter id="t" width="157.1%" height="105.7%" x="-14.3%" y="-2.9%" filterUnits="objectBoundingBox"><feOffset dx="1" in="SourceAlpha" result="shadowOffsetOuter1"/><feGaussianBlur in="shadowOffsetOuter1" result="shadowBlurOuter1" stdDeviation=".5"/><feColorMatrix in="shadowBlurOuter1" values="0 0 0 0 0 0 0 0 0 0 0 0 0 0 0 0 0 0 0.1 0"/></filter><filter id="w" width="142.9%" height="104.3%" x="-7.1%" y="-2.1%" filterUnits="objectBoundingBox"><feOffset dx="1" in="SourceAlpha" result="shadowOffsetInner1"/><feComposite in="shadowOffsetInner1" in2="SourceAlpha" k2="-1" k3="1" operator="arithmetic" result="shadowInnerInner1"/><feColorMatrix in="shadowInnerInner1" values="0 0 0 0 0.718377976 0 0 0 0 0.718377976 0 0 0 0 0.718377976 0 0 0 1 0"/></filter><filter id="y" width="157.1%" height="103.1%" x="-14.3%" y="-1.5%" filterUnits="objectBoundingBox"><feOffset dx="1" in="SourceAlpha" result="shadowOffsetOuter1"/><feGaussianBlur in="shadowOffsetOuter1" result="shadowBlurOuter1" stdDeviation=".5"/><feColorMatrix in="shadowBlurOuter1" values="0 0 0 0 0 0 0 0 0 0 0 0 0 0 0 0 0 0 0.1 0"/></filter><filter id="B" width="142.9%" height="102.3%" x="-7.1%" y="-1.1%" filterUnits="objectBoundingBox"><feOffset dx="1" in="SourceAlpha" result="shadowOffsetInner1"/><feComposite in="shadowOffsetInner1" in2="SourceAlpha" k2="-1" k3="1" operator="arithmetic" result="shadowInnerInner1"/><feColorMatrix in="shadowInnerInner1" values="0 0 0 0 0.718377976 0 0 0 0 0.718377976 0 0 0 0 0.718377976 0 0 0 1 0"/></filter><filter id="D" width="157.1%" height="103%" x="-14.3%" y="-1.5%" filterUnits="objectBoundingBox"><feOffset dx="1" in="SourceAlpha" result="shadowOffsetOuter1"/><feGaussianBlur in="shadowOffsetOuter1" result="shadowBlurOuter1" stdDeviation=".5"/><feColorMatrix in="shadowBlurOuter1" values="0 0 0 0 0 0 0 0 0 0 0 0 0 0 0 0 0 0 0.1 0"/></filter><filter id="G" width="142.9%" height="102.3%" x="-7.1%" y="-1.1%" filterUnits="objectBoundingBox"><feOffset dx="1" in="SourceAlpha" result="shadowOffsetInner1"/><feComposite in="shadowOffsetInner1" in2="SourceAlpha" k2="-1" k3="1" operator="arithmetic" result="shadowInnerInner1"/><feColorMatrix in="shadowInnerInner1" values="0 0 0 0 0.718377976 0 0 0 0 0.718377976 0 0 0 0 0.718377976 0 0 0 1 0"/></filter><filter id="H" width="157.1%" height="103%" x="-14.3%" y="-1.5%" filterUnits="objectBoundingBox"><feOffset dx="1" in="SourceAlpha" result="shadowOffsetOuter1"/><feGaussianBlur in="shadowOffsetOuter1" result="shadowBlurOuter1" stdDeviation=".5"/><feColorMatrix in="shadowBlurOuter1" values="0 0 0 0 0 0 0 0 0 0 0 0 0 0 0 0 0 0 0.1 0"/></filter><filter id="K" width="142.9%" height="102.3%" x="-7.1%" y="-1.1%" filterUnits="objectBoundingBox"><feOffset dx="1" in="SourceAlpha" result="shadowOffsetInner1"/><feComposite in="shadowOffsetInner1" in2="SourceAlpha" k2="-1" k3="1" operator="arithmetic" result="shadowInnerInner1"/><feColorMatrix in="shadowInnerInner1" values="0 0 0 0 0.718377976 0 0 0 0 0.718377976 0 0 0 0 0.718377976 0 0 0 1 0"/></filter><filter id="L" width="105.1%" height="105.1%" x="-2.6%" y="-1.8%" filterUnits="objectBoundingBox"><feMorphology in="SourceAlpha" operator="dilate" radius=".5" result="shadowSpreadOuter1"/><feOffset dy="1" in="shadowSpreadOuter1" result="shadowOffsetOuter1"/><feGaussianBlur in="shadowOffsetOuter1" result="shadowBlurOuter1" stdDeviation=".5"/><feColorMatrix in="shadowBlurOuter1" values="0 0 0 0 1 0 0 0 0 1 0 0 0 0 1 0 0 0 0.7 0"/></filter><filter id="N" width="105.1%" height="105.1%" x="-2.6%" y="-1.8%" filterUnits="objectBoundingBox"><feMorphology in="SourceAlpha" radius="1" result="shadowSpreadInner1"/><feGaussianBlur in="shadowSpreadInner1" result="shadowBlurInner1" stdDeviation=".5"/><feOffset dx="1" in="shadowBlurInner1" result="shadowOffsetInner1"/><feComposite in="shadowOffsetInner1" in2="SourceAlpha" k2="-1" k3="1" operator="arithmetic" result="shadowInnerInner1"/><feColorMatrix in="shadowInnerInner1" values="0 0 0 0 0 0 0 0 0 0 0 0 0 0 0 0 0 0 0.112686821 0"/></filter><filter id="R" width="102.6%" height="130.8%" x="-1.3%" y="-15.4%" filterUnits="objectBoundingBox"><feMorphology in="SourceAlpha" radius="2" result="shadowSpreadInner1"/><feGaussianBlur in="shadowSpreadInner1" result="shadowBlurInner1" stdDeviation="1"/><feOffset in="shadowBlurInner1" result="shadowOffsetInner1"/><feComposite in="shadowOffsetInner1" in2="SourceAlpha" k2="-1" k3="1" operator="arithmetic" result="shadowInnerInner1"/><feColorMatrix in="shadowInnerInner1" values="0 0 0 0 0 0 0 0 0 0 0 0 0 0 0 0 0 0 0.5 0"/></filter><filter id="S" width="105%" height="110%" x="-2.5%" y="-2.5%" filterUnits="objectBoundingBox"><feOffset dy="1" in="SourceAlpha" result="shadowOffsetOuter1"/><feColorMatrix in="shadowOffsetOuter1" values="0 0 0 0 1 0 0 0 0 1 0 0 0 0 1 0 0 0 1 0"/></filter><filter id="W" width="220%" height="220%" x="-60%" y="-60%" filterUnits="objectBoundingBox"><feMorphology in="SourceAlpha" operator="dilate" radius="1.5" result="shadowSpreadOuter1"/><feOffset in="shadowSpreadOuter1" result="shadowOffsetOuter1"/><feGaussianBlur in="shadowOffsetOuter1" result="shadowBlurOuter1" stdDeviation="1.5"/><feColorMatrix in="shadowBlurOuter1" values="0 0 0 0 0 0 0 0 0 0 0 0 0 0 0 0 0 0 0.4 0"/></filter><filter id="Y" width="400.3%" height="400.3%" x="-150.2%" y="-150.2%" filterUnits="objectBoundingBox"><feGaussianBlur in="SourceGraphic" stdDeviation="1.001"/></filter><filter id="aa" width="400.3%" height="400.3%" x="-150.2%" y="-150.2%" filterUnits="objectBoundingBox"><feGaussianBlur in="SourceGraphic" stdDeviation="1.001"/></filter><filter id="ab" width="300.2%" height="300.2%" x="-100.1%" y="-100.1%" filterUnits="objectBoundingBox"><feGaussianBlur in="SourceGraphic" stdDeviation="1.001"/></filter><filter id="ac" width="300.2%" height="300.2%" x="-100.1%" y="-100.1%" filterUnits="objectBoundingBox"><feGaussianBlur in="SourceGraphic" stdDeviation="1.001"/></filter><filter id="ad" width="185.8%" height="300.2%" x="-42.9%" y="-100.1%" filterUnits="objectBoundingBox"><feGaussianBlur in="SourceGraphic" stdDeviation="1.001"/></filter><filter id="ae" width="185.8%" height="185.8%" x="-42.9%" y="-42.9%" filterUnits="objectBoundingBox"><feGaussianBlur in="SourceGraphic" stdDeviation="1.001"/></filter><linearGradient id="n" x1="50%" x2="50%" y1="-.776%" y2="100%"><stop offset="0%" stop-color="#FFF" stop-opacity="0"/><stop offset="3.127%" stop-color="#FFF"/><stop offset="96.791%" stop-color="#FFF"/><stop offset="100%" stop-color="#F1F3F4" stop-opacity="0"/></linearGradient><linearGradient id="q" x1="0%" x2="100%" y1="50%" y2="50%"><stop offset="0%" stop-color="#969696"/><stop offset="32.983%" stop-color="#BEBFC1"/><stop offset="100%" stop-color="#E0E1E3"/></linearGradient><linearGradient id="r" x1="0%" x2="100%" y1="50%" y2="50%"><stop offset="0%" stop-color="#969696"/><stop offset="32.983%" stop-color="#BEBFC1"/><stop offset="100%" stop-color="#E0E1E3"/></linearGradient><linearGradient id="s" x1="50%" x2="50%" y1="0%" y2="100%"><stop offset="0%" stop-color="#2C2C2C"/><stop offset="100%" stop-color="#1D1D1D"/></linearGradient><linearGradient id="v" x1="50%" x2="50%" y1="0%" y2="100%"><stop offset="0%" stop-color="#AFB0B1"/><stop offset="15.921%" stop-color="#DDDEDF"/><stop offset="77.399%" stop-color="#F4F5F6"/><stop offset="77.399%" stop-color="#F3F4F5"/><stop offset="87.683%" stop-color="#DFE0E1"/><stop offset="100%" stop-color="#4D4E4F"/></linearGradient><linearGradient id="x" x1="50%" x2="50%" y1="0%" y2="98.255%"><stop offset="0%" stop-color="#FFFCFC"/><stop offset="2.098%" stop-color="#6E6F6F"/><stop offset="14.245%" stop-color="#F7F8F9"/><stop offset="84.875%" stop-color="#F4F5F6"/><stop offset="89.364%" stop-color="#A4A6A8"/><stop offset="100%" stop-color="#707579"/></linearGradient><linearGradient id="A" x1="50%" x2="50%" y1="0%" y2="100%"><stop offset="0%" stop-color="#AFB0B1"/><stop offset="8.19%" stop-color="#EFF0F1"/><stop offset="15.921%" stop-color="#DDDEDF"/><stop offset="77.399%" stop-color="#F4F5F6"/><stop offset="77.399%" stop-color="#F3F4F5"/><stop offset="87.683%" stop-color="#DFE0E1"/><stop offset="95.28%" stop-color="#FFF"/><stop offset="100%" stop-color="#4D4E4F"/></linearGradient><linearGradient id="C" x1="50%" x2="50%" y1="0%" y2="98.255%"><stop offset="0%" stop-color="#FFFCFC"/><stop offset="2.098%" stop-color="#2E2F2F"/><stop offset="4.737%" stop-color="#383838"/><stop offset="11.348%" stop-color="#E4E5E6"/><stop offset="14.245%" stop-color="#F7F8F9"/><stop offset="84.875%" stop-color="#F4F5F6"/><stop offset="89.364%" stop-color="#8D8E8F"/><stop offset="97.994%" stop-color="#404142"/><stop offset="100%" stop-color="#FFF"/></linearGradient><linearGradient id="F" x1="50%" x2="50%" y1="0%" y2="100%"><stop offset="0%" stop-color="#AFB0B1"/><stop offset="8.19%" stop-color="#EFF0F1"/><stop offset="15.921%" stop-color="#DDDEDF"/><stop offset="77.399%" stop-color="#F4F5F6"/><stop offset="77.399%" stop-color="#F3F4F5"/><stop offset="87.683%" stop-color="#DFE0E1"/><stop offset="95.28%" stop-color="#FFF"/><stop offset="100%" stop-color="#4D4E4F"/></linearGradient><linearGradient id="J" x1="50%" x2="50%" y1="0%" y2="100%"><stop offset="0%" stop-color="#AFB0B1"/><stop offset="8.19%" stop-color="#EFF0F1"/><stop offset="15.921%" stop-color="#DDDEDF"/><stop offset="77.399%" stop-color="#F4F5F6"/><stop offset="77.399%" stop-color="#F3F4F5"/><stop offset="87.683%" stop-color="#DFE0E1"/><stop offset="95.28%" stop-color="#FFF"/><stop offset="100%" stop-color="#4D4E4F"/></linearGradient><path id="c" d="M375.5 24.111c207.383 0 375.5-5.988 375.5-13.375S520.732 0 375.5 0 0 3.349 0 10.736C0 18.123 168.117 24.11 375.5 24.11z"/><path id="e" d="M375.399 20.782c200.47 0 362.983-4.79 362.983-10.7 0-5.91-222.593-8.589-362.983-8.589-140.39 0-362.983 2.68-362.983 8.589 0 5.91 162.513 10.7 362.983 10.7z"/><path id="g" d="M376 14.812c186.645 0 337.95-2.396 337.95-5.35 0-2.956-207.24-4.295-337.95-4.295-130.708 0-337.95 1.34-337.95 4.294 0 2.955 151.306 5.35 337.95 5.35z"/><path id="h" d="M867 512.9V1627c0 49.577-14.154 149-151 149H155c-135.252 0-150-98.871-150-149V674.898a6.966 6.966 0 002-4.892V379.994a6.968 6.968 0 00-2-4.894V149C5 61.467 50.008 0 155 0h564c68.797 0 148 29.79 148 149v226.102a6.965 6.965 0 00-2 4.891v128.014c0 1.905.763 3.632 2 4.894z"/><path id="l" d="M851 149c0-50.771-15.017-85.322-42.096-106.63C786.224 24.522 754.921 16 719 16H155c-46.597 0-80.606 12.773-102.636 36.55C31.63 74.928 21 107.71 21 149v1478c0 32.22 6.232 61.312 21.606 84.442C63.196 1742.422 98.873 1760 155 1760h561c56.817 0 92.818-17.668 113.493-48.767C844.854 1688.127 851 1659.23 851 1627V149z"/><path id="u" d="M0 3.008A3.01 3.01 0 013.01 0H7v70H3.01A3.002 3.002 0 010 66.992V3.008z"/><path id="z" d="M0 2.998A3.005 3.005 0 013.01 0H7v131H3.01A3.002 3.002 0 010 128.002V2.998z"/><path id="E" d="M0 3.005C0 1.345 1.35 0 3.01 0H7v130.995A.997.997 0 015.997 132H3.01A3.01 3.01 0 010 128.995V3.005z"/><path id="I" d="M0 3.005C0 1.345 1.333.19 2.969.425l1.062.15C5.671.81 7 2.35 7 3.992v124.018c0 1.652-1.333 3.181-2.969 3.415l-1.062.152C1.329 131.81 0 130.65 0 128.995V3.005z"/><path id="M" d="M380 1663c33.137 0 60-26.863 60-60s-26.863-60-60-60-60 26.863-60 60 26.863 60 60 60zm0 8c-37.555 0-68-30.445-68-68s30.445-68 68-68 68 30.445 68 68-30.445 68-68 68z"/><radialGradient id="U" cx="121.058%" cy="134.126%" r="100.661%" fx="121.058%" fy="134.126%"><stop offset="0%" stop-color="#434343"/><stop offset="100%" stop-color="#161616"/></radialGradient><radialGradient id="X" cx="50%" cy="0%" r="100%" fx="50%" fy="0%"><stop offset="0%" stop-color="#2A4893"/><stop offset="100%" stop-color="#213054"/></radialGradient><circle id="T" cx="380" cy="10" r="10"/><circle id="V" cx="14.5" cy="14.5" r="7.5"/><rect id="O" width="151" height="13" x="0" y="0" rx="6.5"/><rect id="Q" width="151" height="13" x="0" y="0" rx="6.5"/></defs><g fill="none" fill-rule="evenodd"><g fill="#000"><use filter="url(#b)" transform="translate(60 1764)" xlink:href="#c"/><use filter="url(#d)" transform="translate(60 1764)" xlink:href="#e"/><use filter="url(#f)" transform="translate(60 1764)" xlink:href="#g"/></g><use fill="#F5F5F6" xlink:href="#h"/><use fill="url(#i)" fill-opacity=".03" xlink:href="#h"/><use fill="#000" filter="url(#j)" xlink:href="#h"/><use fill="#000" filter="url(#k)" xlink:href="#l"/><use fill="#FAFBFD" xlink:href="#l"/><use fill="#000" filter="url(#m)" xlink:href="#l"/><g fill="url(#n)" transform="translate(26 27)"><path d="M741.14.423c14.696 4.267 27.577 10.64 38.29 19.06C806.22 40.54 820 74.566 820 122.852V1599.15c0 33.34-6.686 60.661-20.838 81.924-12.945 19.448-31.848 32.953-57.376 40.324 18.58-7.898 32.921-19.797 43.376-35.595 14.152-21.385 20.838-48.865 20.838-82.396V118.594c0-48.565-13.78-82.785-40.57-103.963-7.067-5.588-15.079-10.279-23.932-14.057z" filter="url(#o)"/><path d="M-.007.423c14.696 4.267 27.577 10.64 38.291 19.06 26.79 21.057 40.57 55.082 40.57 103.368V1599.15c0 33.34-6.687 60.661-20.839 81.924-12.944 19.448-31.847 32.953-57.376 40.324 18.58-7.898 32.922-19.797 43.376-35.595 14.152-21.385 20.838-48.865 20.838-82.396V118.594c0-48.565-13.78-82.785-40.569-103.963C17.216 9.043 9.204 4.352.351.574z" filter="url(#p)" transform="matrix(-1 0 0 1 78.853 0)"/></g><path fill="url(#q)" d="M0 2s5.212-2 16-2v25c-10.472.889-16 3-16 3V2z" transform="translate(5 140)"/><path fill="url(#q)" d="M846 2s5.212-2 16-2v25c-10.472.889-16 3-16 3V2z" transform="matrix(-1 0 0 1 1713 140)"/><path fill="url(#r)" d="M0 1472s5.212-2 16-2v26c-11.374-.4-16 1-16 1v-25z" transform="matrix(1 0 0 -1 5 3107)"/><path fill="url(#r)" d="M846 1472s5.212-2 16-2v26c-11.374-.4-16 1-16 1v-25z" transform="rotate(180 856.5 1553.5)"/><g fill="url(#s)" opacity=".6" transform="translate(377 1772)"><path d="M9.068 0c3.972.042 10.928.008 10.928.008C21.103.003 22.896 0 23.998 0h85.107C113.385 0 118 4 118 4H0S5.097-.042 9.068 0z"/></g><g transform="translate(0 227)"><use fill="#000" filter="url(#t)" xlink:href="#u"/><use fill="url(#v)" xlink:href="#u"/><use fill="#000" filter="url(#w)" xlink:href="#u"/><rect width="2" height="70" x="1" fill="url(#x)" rx="1"/></g><g transform="translate(1 379)"><use fill="#000" filter="url(#y)" xlink:href="#z"/><use fill="url(#A)" xlink:href="#z"/><use fill="#000" filter="url(#B)" xlink:href="#z"/><rect width="2" height="130" x="1" fill="url(#C)" rx="1"/></g><g transform="translate(1 540)"><use fill="#000" filter="url(#D)" xlink:href="#E"/><use fill="url(#F)" xlink:href="#E"/><use fill="#000" filter="url(#G)" xlink:href="#E"/><rect width="2" height="130" x="1" y="1" fill="url(#C)" rx="1"/></g><g transform="matrix(-1 0 0 1 871 378)"><use fill="#000" filter="url(#H)" xlink:href="#I"/><use fill="url(#J)" xlink:href="#I"/><use fill="#000" filter="url(#K)" xlink:href="#I"/><rect width="2" height="130" x="1" y="1" fill="url(#C)" rx="1"/></g><g><g opacity=".801" transform="translate(361 110)"><mask id="P" fill="#fff"><use xlink:href="#O"/></mask><use fill="#272627" xlink:href="#O"/><path fill="#000" fill-opacity=".15" d="M152.11 11.143v.928H-2.22v-.928h154.33zm0-2.786v.929H-2.22v-.929h154.33zm0-2.786V6.5H-2.22v-.929h154.33zm0-2.785v.928H-2.22v-.928h154.33zm0-2.786v.929H-2.22V0h154.33z" mask="url(#P)"/><path fill="#000" fill-opacity=".15" d="M2.22-.929v15.786H1.11V-.929h1.11zm3.331 0v15.786h-1.11V-.929h1.11zm3.331 0v15.786h-1.11V-.929h1.11zm3.331 0v15.786h-1.11V-.929h1.11zm3.331 0v15.786h-1.11V-.929h1.11zm3.331 0v15.786h-1.11V-.929h1.11zm3.33 0v15.786h-1.11V-.929h1.11zm3.332 0v15.786h-1.11V-.929h1.11zm3.33 0v15.786h-1.11V-.929h1.11zm3.332 0v15.786h-1.11V-.929h1.11zm3.33 0v15.786h-1.11V-.929h1.11zm3.331 0v15.786h-1.11V-.929h1.11zm3.331 0v15.786h-1.11V-.929h1.11zm3.331 0v15.786h-1.11V-.929h1.11zm3.33 0v15.786h-1.11V-.929h1.11zm3.332 0v15.786h-1.11V-.929h1.11zm3.33 0v15.786h-1.11V-.929h1.11zm3.332 0v15.786h-1.11V-.929h1.11zm3.33 0v15.786h-1.11V-.929h1.11zm3.331 0v15.786h-1.11V-.929h1.11zm3.331 0v15.786h-1.11V-.929h1.11zm3.331 0v15.786h-1.11V-.929h1.11zm3.331 0v15.786h-1.11V-.929h1.11zm3.33 0v15.786h-1.11V-.929h1.11zm3.332 0v15.786h-1.11V-.929h1.11zm3.33 0v15.786h-1.11V-.929h1.11zm3.332 0v15.786h-1.11V-.929h1.11zm3.33 0v15.786h-1.11V-.929h1.11zm3.331 0v15.786h-1.11V-.929h1.11zm3.331 0v15.786h-1.11V-.929h1.11zm3.331 0v15.786h-1.11V-.929h1.11zm3.33 0v15.786h-1.11V-.929h1.11zm3.332 0v15.786h-1.11V-.929h1.11zm3.33 0v15.786h-1.11V-.929h1.11zm3.332 0v15.786h-1.11V-.929h1.11zm3.33 0v15.786h-1.11V-.929h1.11zm3.331 0v15.786h-1.11V-.929h1.11zm3.331 0v15.786h-1.11V-.929h1.11zm3.331 0v15.786h-1.11V-.929h1.11zm3.331 0v15.786h-1.11V-.929h1.11zm3.33 0v15.786h-1.11V-.929h1.11zm3.332 0v15.786h-1.11V-.929h1.11zm3.33 0v15.786h-1.11V-.929h1.11zm3.332 0v15.786h-1.11V-.929h1.11zm3.33 0v15.786h-1.11V-.929h1.11z" mask="url(#P)"/><use fill="#000" filter="url(#R)" opacity=".2" xlink:href="#Q"/></g><g transform="translate(56 49)"><use fill="#000" filter="url(#S)" xlink:href="#T"/><use fill="#323234" xlink:href="#T"/></g><g transform="translate(285 102)"><circle cx="14.5" cy="14.5" r="14.5" fill="url(#U)"/><mask id="Z" fill="#fff"><use xlink:href="#V"/></mask><g opacity=".388"><use fill="#000" filter="url(#W)" xlink:href="#V"/><use fill="url(#X)" xlink:href="#V"/></g><circle cx="10" cy="17" r="1" fill="#BEE5FF" filter="url(#Y)" mask="url(#Z)"/><circle cx="10" cy="17" r="1" fill="#BEE5FF" filter="url(#aa)" mask="url(#Z)"/><circle cx="21.5" cy="10.5" r="1.5" fill="#75C8FF" filter="url(#ab)" mask="url(#Z)"/><circle cx="21.5" cy="10.5" r="1.5" fill="#75C8FF" filter="url(#ac)" mask="url(#Z)"/><ellipse cx="12.5" cy="10.5" fill="#3358B6" filter="url(#ad)" mask="url(#Z)" rx="3.5" ry="1.5" transform="rotate(-29 12.5 10.5)"/><circle cx="15.5" cy="14.5" r="3.5" fill="#00154F" filter="url(#ae)" mask="url(#Z)" transform="rotate(-16 15.5 14.5)"/></g><path fill="#EFF7F9" d="M61 214h750a5 5 0 015 5v1334a5 5 0 01-5 5H61a5 5 0 01-5-5V219a5 5 0 015-5z"/></g></g></svg>